<svg fill="#000000" xmlns="http://www.w3.org/2000/svg"  viewBox="0 0 128 128" width="128px" height="128px"><path d="M22,15h-4c-1.7,0-3,1.3-3,3s1.3,3,3,3h4c1.7,0,3-1.3,3-3S23.7,15,22,15z"/><path d="M38,15h-4c-1.7,0-3,1.3-3,3s1.3,3,3,3h4c1.7,0,3-1.3,3-3S39.7,15,38,15z"/><path d="M114,1H14C6.8,1,1,6.8,1,14v100c0,7.2,5.8,13,13,13h100c7.2,0,13-5.8,13-13V14C127,6.8,121.2,1,114,1z M121,114 c0,3.9-3.1,7-7,7H14c-3.9,0-7-3.1-7-7V35h114V114z M121,29H7V14c0-3.9,3.1-7,7-7h100c3.9,0,7,3.1,7,7V29z"/><path d="M26.1,94.7c0.3,1.3,1.5,2.3,2.9,2.3s2.6-0.9,2.9-2.3L37,74.4l5.1,20.4c0.3,1.3,1.5,2.3,2.9,2.3s2.6-0.9,2.9-2.3l8-32 c0.4-1.6-0.6-3.2-2.2-3.6c-1.6-0.4-3.2,0.6-3.6,2.2L45,81.6l-5.1-20.4C39.6,59.9,38.4,59,37,59s-2.6,0.9-2.9,2.3L29,81.6l-5.1-20.4 c-0.4-1.6-2-2.6-3.6-2.2c-1.6,0.4-2.6,2-2.2,3.6L26.1,94.7z"/><path d="M64,97h14c1.7,0,3-1.3,3-3s-1.3-3-3-3H67V81h11c1.7,0,3-1.3,3-3s-1.3-3-3-3H67V65h11c1.7,0,3-1.3,3-3s-1.3-3-3-3H64 c-1.7,0-3,1.3-3,3v32C61,95.7,62.3,97,64,97z"/><path d="M89,97h9c6.6,0,12-5.4,12-12c0-4.4-2.3-8.2-5.8-10.3c1.1-1.6,1.8-3.6,1.8-5.7c0-5.5-4.5-10-10-10h-7c-1.7,0-3,1.3-3,3v32 C86,95.7,87.3,97,89,97z M92,65h4c2.2,0,4,1.8,4,4s-1.8,4-4,4h-4V65z M92,79h6c3.3,0,6,2.7,6,6s-2.7,6-6,6h-6V79z"/></svg>